HIERARCHY
ROOT Hips
{
	OFFSET 0.000000 0.000000 0.000000
	CHANNELS 6 Xposition Yposition Zposition Xrotation Yrotation Zrotation
	JOINT LeftUpLeg_virtual
	{
		OFFSET 0.000000 0.000000 0.000000
		CHANNELS 3 Xrotation Yrotation Zrotation
		JOINT LeftUpLeg
		{
			OFFSET 10.205400 -3.823500 0.155100
			CHANNELS 3 Xrotation Yrotation Zrotation
			JOINT LeftLeg
			{
				OFFSET 0.708757 -12.982077 0.567790
				CHANNELS 3 Xrotation Yrotation Zrotation
				JOINT LeftFoot
				{
					OFFSET -0.708756 -10.717838 -2.184338
					CHANNELS 3 Xrotation Yrotation Zrotation
					JOINT LeftToeBase
					{
						OFFSET 0.108149 -7.191104 7.560241
						CHANNELS 3 Xrotation Yrotation Zrotation
						JOINT LeftToe_End
						{
							OFFSET 0.070230 0.081724 4.490308
							CHANNELS 3 Xrotation Yrotation Zrotation
							End Site
							{
								OFFSET 0 0 0
							}
						}
					}
				}
			}
		}
	}
	JOINT RightUpLeg_virtual
	{
		OFFSET 0.000000 0.000000 0.000000
		CHANNELS 3 Xrotation Yrotation Zrotation
		JOINT RightUpLeg
		{
			OFFSET -10.205400 -3.823500 0.005500
			CHANNELS 3 Xrotation Yrotation Zrotation
			JOINT RightLeg
			{
				OFFSET -0.708756 -12.982134 0.610632
				CHANNELS 3 Xrotation Yrotation Zrotation
				JOINT RightFoot
				{
					OFFSET 0.708754 -10.717769 -1.945823
					CHANNELS 3 Xrotation Yrotation Zrotation
					JOINT RightToeBase
					{
						OFFSET -0.108140 -7.191069 7.372968
						CHANNELS 3 Xrotation Yrotation Zrotation
						JOINT RightToe_End
						{
							OFFSET -0.070227 0.081735 4.479403
							CHANNELS 3 Xrotation Yrotation Zrotation
							End Site
							{
								OFFSET 0 0 0
							}
						}
					}
				}
			}
		}
	}
	JOINT Spine_virtual
	{
		OFFSET 0.000000 0.000000 0.000000
		CHANNELS 3 Xrotation Yrotation Zrotation
		JOINT Spine
		{
			OFFSET 0.000000 6.876099 0.125700
			CHANNELS 3 Xrotation Yrotation Zrotation
			JOINT Spine1
			{
				OFFSET 0.000000 5.730043 0.104720
				CHANNELS 3 Xrotation Yrotation Zrotation
				JOINT Spine1_split
				{
					OFFSET 0.000000 5.730043 0.104720
					CHANNELS 3 Xrotation Yrotation Zrotation
					JOINT Spine2
					{
						OFFSET 0.000000 5.730043 0.104720
						CHANNELS 3 Xrotation Yrotation Zrotation
						JOINT Neck_virtual
						{
							OFFSET 0.000000 0.000000 0.000000
							CHANNELS 3 Xrotation Yrotation Zrotation
							JOINT Neck
							{
								OFFSET 0.000000 10.314075 0.188496
								CHANNELS 3 Xrotation Yrotation Zrotation
								JOINT Head
								{
									OFFSET 0.000000 7.643700 -2.377400
									CHANNELS 3 Xrotation Yrotation Zrotation
									JOINT HeadTop_End
									{
										OFFSET 0.000000 43.788605 -13.619600
										CHANNELS 3 Xrotation Yrotation Zrotation
										End Site
										{
											OFFSET 0 0 0
										}
									}
								}
							}
						}
						JOINT LeftShoulder_virtual
						{
							OFFSET 0.000000 0.000000 0.000000
							CHANNELS 3 Xrotation Yrotation Zrotation
							JOINT LeftShoulder
							{
								OFFSET 2.196100 4.412489 0.087492
								CHANNELS 3 Xrotation Yrotation Zrotation
								JOINT LeftShoulder_split
								{
									OFFSET 2.196100 4.412489 0.087492
									CHANNELS 3 Xrotation Yrotation Zrotation
									JOINT LeftArm
									{
										OFFSET 8.771219 -2.981674 -0.026999
										CHANNELS 3 Xrotation Yrotation Zrotation
										JOINT LeftForeArm
										{
											OFFSET 8.512804 0.000000 -0.000000
											CHANNELS 3 Xrotation Yrotation Zrotation
											JOINT LeftHand
											{
												OFFSET 18.484802 0.000000 -0.000000
												CHANNELS 3 Xrotation Yrotation Zrotation
												End Site
												{
													OFFSET 0 0 0
												}
											}
										}
									}
								}
							}
						}
						JOINT RightShoulder_virtual
						{
							OFFSET 0.000000 0.000000 0.000000
							CHANNELS 3 Xrotation Yrotation Zrotation
							JOINT RightShoulder
							{
								OFFSET -2.196100 4.412496 0.070690
								CHANNELS 3 Xrotation Yrotation Zrotation
								JOINT RightShoulder_split
								{
									OFFSET -2.196100 4.412496 0.070690
									CHANNELS 3 Xrotation Yrotation Zrotation
									JOINT RightArm
									{
										OFFSET -8.771282 -2.981682 -0.094208
										CHANNELS 3 Xrotation Yrotation Zrotation
										JOINT RightForeArm
										{
											OFFSET -8.494598 0.000000 0.000000
											CHANNELS 3 Xrotation Yrotation Zrotation
											JOINT RightHand
											{
												OFFSET -18.483803 0.000000 0.000001
												CHANNELS 3 Xrotation Yrotation Zrotation
												End Site
												{
													OFFSET 0 0 0
												}
											}
										}
									}
								}
							}
						}
					}
				}
			}
		}
	}
}
MOTION
Frames: 7
Frame Time: 0.03333333
-5.138377 21.008911 -1.612457 0.000000 0.000000 0.000000 -3.271344 -5.986127 -0.923196 -78.199307 -10.481096 3.781467 80.405533 -18.479787 -4.282331 7.583492 -2.713695 -1.247351 -2.088453 1.282634 1.879600 0.000000 0.000000 0.000000 -3.177925 -0.876515 -0.602065 16.229072 4.511084 -9.840185 93.967338 2.990047 -2.091863 -69.698686 -14.785702 20.198539 -39.581913 -1.005565 -3.703069 0.000000 0.000000 0.000000 -6.582325 1.579904 -1.667575 11.821160 3.294061 -1.846784 5.811606 0.888384 -3.398081 0.387150 -1.006647 0.119343 0.000000 0.000000 0.000000 5.449110 0.880356 -2.906000 1.758047 -3.437742 10.013540 12.784498 1.547818 -6.138872 0.000000 0.000000 0.000000 5.164516 0.649322 -2.307470 -7.405791 -39.218915 -6.461371 -1.086602 -4.471971 -3.043589 -37.910190 -15.082180 -33.411718 -92.603411 -55.509074 -87.665539 0.000000 0.000000 0.000000 5.086282 0.495590 -2.664246 -8.776278 30.575646 12.154794 -2.247363 -2.660824 4.965977 -47.950435 6.498385 38.927741 -129.919651 54.689560 127.951068 0.000000 0.000000 0.000000 
-5.243021 22.827854 -1.338140 0.000000 0.000000 0.000000 -1.221143 -4.169987 -0.215819 -72.031523 -9.677592 2.295500 70.562541 -19.180288 -3.217792 8.377257 -4.233528 -1.240110 -4.317636 1.010782 2.373487 0.000000 0.000000 0.000000 -0.979255 1.658824 -0.020042 15.136285 1.979573 -7.940201 85.160745 1.179723 -2.370851 -64.868158 -14.140781 20.769683 -36.459946 0.164478 -4.940736 0.000000 0.000000 0.000000 -4.348367 3.054022 -1.116760 10.737162 2.687267 -1.892264 3.710106 0.464509 -3.907710 1.188275 -0.767378 0.255481 0.000000 0.000000 0.000000 3.343853 0.418359 -3.037171 -5.063494 -3.793580 8.892195 12.508897 0.727200 -6.462225 0.000000 0.000000 0.000000 2.942342 0.361406 -2.609932 -6.603876 -34.617974 -5.717585 -0.639245 -5.833750 -1.698603 -27.938947 -13.685852 -24.029394 -110.586172 -62.293607 -108.819161 0.000000 0.000000 0.000000 2.950596 0.044579 -3.075383 -7.759640 25.697463 9.236149 -2.237012 -1.453106 3.692440 -38.855515 11.058145 35.124343 -147.973712 57.755875 147.785636 0.000000 0.000000 0.000000 
-5.344463 25.081738 -0.860273 0.000000 0.000000 0.000000 1.062379 -2.575185 0.202405 -65.032389 -8.936431 1.458487 57.966634 -19.416548 -2.978486 11.070511 -5.142743 -0.821243 -5.203649 0.736502 2.486163 0.000000 0.000000 0.000000 1.369427 3.237856 0.360258 14.385924 -0.624085 -6.103618 72.647777 -0.515578 -2.619811 -56.763469 -12.263592 21.031867 -34.837923 1.280864 -5.353789 0.000000 0.000000 0.000000 -1.583665 3.998431 -0.769686 9.039169 2.432136 -1.653540 1.452973 0.390939 -4.339450 1.329588 -0.901475 0.591443 0.000000 0.000000 0.000000 1.296089 0.133418 -3.100586 -14.432197 -4.363509 7.336736 12.039808 -0.036324 -7.157780 0.000000 0.000000 0.000000 0.707730 0.351422 -2.917447 -5.803177 -28.305796 -4.973385 -0.639175 -5.730528 0.017892 -20.660819 -9.411243 -15.901976 -118.930437 -71.566995 -120.602931 0.000000 0.000000 0.000000 0.916190 -0.135980 -3.470411 -7.097025 20.236370 6.210186 -2.441917 0.243337 2.213691 -27.359689 12.327548 27.961988 -163.506396 63.368391 165.512054 0.000000 0.000000 0.000000 
-5.417919 27.519413 -0.234756 0.000000 0.000000 0.000000 3.341198 -1.472327 0.025092 -57.600222 -8.129218 1.674429 44.197403 -18.715675 -3.351168 13.948254 -5.060352 0.005490 -4.470731 0.575689 2.009348 0.000000 0.000000 0.000000 3.563489 3.535112 0.287595 14.063195 -2.953583 -4.167870 57.690763 -1.928516 -2.864407 -45.906497 -9.129602 20.387039 -35.038809 2.306605 -4.904679 0.000000 0.000000 0.000000 1.218084 4.254454 -0.904410 7.166391 2.598434 -1.158359 -0.597143 0.746800 -4.491092 1.402335 -1.089764 0.903010 0.000000 0.000000 0.000000 -0.555982 0.162365 -2.956421 -25.879763 -4.954180 5.465438 11.606750 -0.667210 -8.054022 0.000000 0.000000 0.000000 -1.161736 0.631134 -3.109906 -5.002276 -20.861247 -4.006257 -1.584115 -4.142188 1.133093 -16.819158 -3.525294 -9.638129 -58.557800 -84.801826 -64.142928 0.000000 0.000000 0.000000 -0.738381 0.065654 -3.647344 -6.879183 14.482626 3.409715 -2.775339 1.642366 1.005693 -14.998523 8.836659 19.458553 174.253753 74.383786 -169.552124 0.000000 0.000000 0.000000 
-5.459073 29.738010 0.466084 0.000000 0.000000 0.000000 5.218109 -1.231827 -0.696995 -50.571868 -7.212752 2.931465 32.160851 -17.564772 -3.566099 15.577874 -4.471355 0.531369 -3.323719 0.485825 1.360807 0.000000 0.000000 0.000000 5.270318 3.166876 -0.401509 14.107084 -4.802805 -2.023741 43.361179 -3.024819 -3.161081 -33.868654 -5.426970 18.572616 -38.324912 3.335372 -4.010512 0.000000 0.000000 0.000000 3.395840 3.857506 -1.501550 5.662217 3.139176 -0.493890 -2.047963 1.447651 -4.221164 1.252189 -1.318334 0.800427 0.000000 0.000000 0.000000 -1.978820 0.514195 -2.530394 -38.036425 -5.211029 3.576430 11.513856 -1.207089 -8.986639 0.000000 0.000000 0.000000 -2.439610 1.219815 -3.016412 -4.356587 -13.281078 -2.642943 -3.375781 -2.005571 1.746012 -15.650426 3.393713 -5.159626 22.424341 -64.208450 12.046658 0.000000 0.000000 0.000000 -1.887448 0.671743 -3.424572 -7.092678 8.842231 1.053918 -2.968894 2.480710 0.353546 -4.386891 0.835289 11.996302 75.426045 79.215059 -67.553467 0.000000 0.000000 0.000000 
-5.448281 31.387142 1.214546 0.000000 0.000000 0.000000 6.331736 -1.892107 -1.856297 -44.811823 -6.397116 4.880460 24.383596 -16.879643 -3.179710 15.618377 -3.997748 0.353872 -3.369943 0.388391 0.985396 0.000000 0.000000 0.000000 6.268749 2.353199 -1.582839 14.398549 -6.107340 0.048300 33.193876 -3.367643 -3.333951 -21.925377 -1.855354 16.623376 -45.099746 4.260263 -3.149843 0.000000 0.000000 0.000000 4.421117 3.017980 -2.425106 4.940679 3.842385 0.193285 -2.769366 2.282239 -3.515369 1.506812 -1.503658 0.715398 0.000000 0.000000 0.000000 -2.760285 1.102032 -1.826517 -49.064712 -4.895088 1.950404 11.917142 -1.495116 -9.743046 0.000000 0.000000 0.000000 -2.989488 1.947778 -2.531167 -3.997789 -6.370598 -0.336812 -5.035315 -0.532613 1.513946 -16.047231 9.794911 -2.179860 28.546743 -36.719944 12.472000 0.000000 0.000000 0.000000 -2.454304 1.488991 -2.736767 -7.581349 3.739365 -0.742402 -3.343374 2.823393 0.373276 3.281586 -9.373081 6.923362 36.730053 58.859360 -25.177585 0.000000 0.000000 0.000000 
-5.355817 32.319286 1.933971 0.000000 0.000000 0.000000 6.553152 -3.139975 -3.133641 -40.970217 -5.780189 6.883851 22.024172 -17.058242 -2.274674 14.177006 -3.922184 -0.261945 -4.565432 0.291329 1.027670 0.000000 0.000000 0.000000 6.388038 1.626786 -3.045778 14.405024 -7.135704 1.333601 29.360702 -2.321809 -3.200856 -11.228546 1.464733 16.015101 -52.691371 4.900920 -2.535151 0.000000 0.000000 0.000000 4.315619 1.964335 -3.442219 4.994482 4.510730 0.747546 -2.847417 3.071351 -2.535036 2.351100 -0.973722 0.423184 0.000000 0.000000 0.000000 -2.882454 1.809738 -0.963740 -57.218940 -4.011476 1.005085 12.861430 -1.303055 -10.230407 0.000000 0.000000 0.000000 -2.995622 2.731745 -1.661283 -4.149921 -0.589720 2.669539 -5.947639 -0.353253 1.028666 -16.534698 14.057033 -0.943545 32.238759 -16.092131 10.125790 0.000000 0.000000 0.000000 -2.545469 2.308047 -1.813645 -8.175600 -0.679304 -2.086438 -4.096995 2.315934 0.909492 7.889430 -19.352851 3.646201 29.024018 38.837808 -13.682198 0.000000 0.000000 0.000000 
